<svg id="icon" height="512" viewBox="0 0 128 128" width="512" xmlns="http://www.w3.org/2000/svg"><path d="m98.49 12.437h6.882v31.592h-6.882z" fill="#e8c79c" transform="matrix(.749 -.663 .663 .749 6.9 74.667)"/><path d="m109.826 43.34h-.061a1 1 0 0 1 -.688-.335l-20.942-23.654a1 1 0 0 1 .086-1.412l5.152-4.562a.979.979 0 0 1 .724-.25 1 1 0 0 1 .688.335l20.942 23.653a1 1 0 0 1 -.086 1.412l-5.152 4.562a1 1 0 0 1 -.663.251zm-19.531-24.567 19.617 22.155 3.655-3.236-19.617-22.155z" fill="#2f3a5a"/><path d="m22.628 12.437h6.882v31.592h-6.882z" fill="#e8c79c" transform="matrix(-.749 -.663 .663 -.749 26.87 66.652)"/><path d="m18.174 43.34a1 1 0 0 1 -.663-.251l-5.152-4.562a1 1 0 0 1 -.086-1.412l20.942-23.653a1 1 0 0 1 1.412-.085l5.152 4.562a1 1 0 0 1 .086 1.412l-20.942 23.649a1 1 0 0 1 -.688.335zm-3.741-5.648 3.655 3.236 19.617-22.155-3.655-3.236z" fill="#2f3a5a"/><path d="m108.619 15.588h8.529v101.254h-8.529z" fill="#e8c79c"/><path d="m117.148 117.842h-8.53a1 1 0 0 1 -1-1v-101.254a1 1 0 0 1 1-1h8.53a1 1 0 0 1 1 1v101.254a1 1 0 0 1 -1 1zm-7.53-2h6.53v-99.254h-6.53z" fill="#2f3a5a"/><path d="m10.852 15.588h8.529v101.254h-8.529z" fill="#e8c79c"/><path d="m19.382 117.842h-8.53a1 1 0 0 1 -1-1v-101.254a1 1 0 0 1 1-1h8.53a1 1 0 0 1 1 1v101.254a1 1 0 0 1 -1 1zm-7.53-2h6.53v-99.254h-6.53z" fill="#2f3a5a"/><path d="m1 11.158h126v8.861h-126z" fill="#e8c79c"/><path d="m127 21.019h-126a1 1 0 0 1 -1-1v-8.861a1 1 0 0 1 1-1h126a1 1 0 0 1 1 1v8.861a1 1 0 0 1 -1 1zm-125-2h124v-6.861h-124z" fill="#2f3a5a"/><path d="m65.7 9.509v10.51l-.003 41.935" fill="#e1e6e9"/><path d="m65.7 62.954a1 1 0 0 1 -1-1v-52.445a1 1 0 1 1 2 0v52.445a1 1 0 0 1 -1 1z" fill="#2f3a5a"/><path d="m73.578 50.814h-15.763a7.881 7.881 0 0 0 -7.881 7.881v28.884a3.438 3.438 0 0 0 3.438 3.438h24.649a3.438 3.438 0 0 0 3.438-3.438v-28.884a7.881 7.881 0 0 0 -7.881-7.881z" fill="#e1e6e9"/><path d="m81.46 58.69v28.89a3.44 3.44 0 0 1 -3.44 3.44h-3.95a3.44 3.44 0 0 0 3.44-3.44v-28.89a7.883 7.883 0 0 0 -7.88-7.88h3.95a7.883 7.883 0 0 1 7.88 7.88z" fill="#c1cdd3"/><path d="m78.021 92.017h-24.649a4.442 4.442 0 0 1 -4.437-4.438v-28.884a8.892 8.892 0 0 1 8.881-8.881h15.762a8.892 8.892 0 0 1 8.881 8.881v28.884a4.442 4.442 0 0 1 -4.438 4.438zm-20.206-40.2a6.889 6.889 0 0 0 -6.881 6.881v28.881a2.441 2.441 0 0 0 2.438 2.438h24.649a2.441 2.441 0 0 0 2.438-2.438v-28.884a6.889 6.889 0 0 0 -6.881-6.881z" fill="#2f3a5a"/><path d="m56.461 79.55v39.415a3.877 3.877 0 0 0 7.74.33l1.5-29.782 1.491 29.78a3.877 3.877 0 0 0 3.863 3.549h.008a3.877 3.877 0 0 0 3.877-3.877v-39.415" fill="#e1e6e9"/><path d="m71.063 123.842a4.85 4.85 0 0 1 -4.868-4.464l-.5-9.919-.5 9.886a4.877 4.877 0 0 1 -9.739-.38v-39.415a1 1 0 1 1 2 0v39.415a2.877 2.877 0 0 0 5.744.244l1.5-29.747a1 1 0 0 1 1-.95 1 1 0 0 1 1 .95l1.49 29.78a2.853 2.853 0 0 0 2.864 2.6 2.882 2.882 0 0 0 2.886-2.877v-39.415a1 1 0 1 1 2 0v39.415a4.882 4.882 0 0 1 -4.877 4.877z" fill="#2f3a5a"/><circle cx="65.697" cy="40.922" fill="#e1e6e9" r="10.266"/><path d="m75.96 40.92a10.266 10.266 0 0 1 -18.78 5.74 10.275 10.275 0 0 0 13.01-14.97 10.258 10.258 0 0 1 5.77 9.23z" fill="#c1cdd3"/><g fill="#2f3a5a"><path d="m65.7 52.188a11.266 11.266 0 1 1 11.262-11.266 11.278 11.278 0 0 1 -11.262 11.266zm0-20.531a9.266 9.266 0 1 0 9.266 9.266 9.276 9.276 0 0 0 -9.266-9.267z"/><path d="m68.933 22.259a1 1 0 0 1 -1-1v-11.259a1 1 0 0 1 2 0v11.259a1 1 0 0 1 -1 1z"/><path d="m62.349 22.259a1 1 0 0 1 -1-1v-11.259a1 1 0 0 1 2 0v11.259a1 1 0 0 1 -1 1z"/></g></svg>